<svg version="1.0" xmlns="http://www.w3.org/2000/svg" width="700" height="700" viewBox="0 0 700 700">
<g transform="translate(0,700) scale(0.1,-0.1)" fill="#000000" stroke="none">
<path d="M0 3500 l0 -3500 3500 0 3500 0 0 3500 0 3500 -3500 0 -3500 0 0 -3500z m1400 1400 l0 -800 800 0 800 0 0 800 0 800 -800 0 -800 0 0 -800z m2800 0 l0 -800 800 0 800 0 0 800 0 800 -800 0 -800 0 0 -800z m-2800 -2800 l0 -800 800 0 800 0 0 800 0 800 -800 0 -800 0 0 -800z m2800 0 l0 -800 800 0 800 0 0 800 0 800 -800 0 -800 0 0 -800z"/>
</g>
</svg>